<?xml version="1.0" encoding="utf-8"?>
<!-- Generator: Adobe Illustrator 18.1.0, SVG Export Plug-In . SVG Version: 6.00 Build 0)  -->
<!DOCTYPE svg PUBLIC "-//W3C//DTD SVG 1.1//EN" "http://www.w3.org/Graphics/SVG/1.1/DTD/svg11.dtd">
<svg version="1.1" id="Layer_1" xmlns="http://www.w3.org/2000/svg" xmlns:xlink="http://www.w3.org/1999/xlink" x="0px" y="0px"
	 viewBox="0 0 280 212.5" enable-background="new 0 0 280 212.5" xml:space="preserve">
<g>
	<g>
		<path d="M189.6,140.4c-9,1.5-13.6,8.1-13.6,19.8c0,11.8,6.1,19.7,15.5,19.7c4.4,0,8.4-1.5,16.7-5.6v9.5c-10,4.6-15.9,6-24,6
			c-8.8,0-14.9-2.3-19.9-7.5c-5.2-5.2-7.7-12-7.7-19.5c0-16.9,12.5-28.3,30.7-28.3c12.1,0,20.4,5.5,20.4,13.7c0,5.2-3.9,8.8-9.6,8.8
			c-3,0-5.4-0.8-8.5-2.6V140.4z"/>
		<path d="M145.1,162.9c8.1-10.2,10.9-14.3,10.9-19.3c0-5-4-9-9.2-9c-3.3,0-6.2,1.5-7.6,3.1v20.7L126,176.1v-40.2h-12.6l-20.9,34.7
			v-34.7h-7.2l-19,4.6v4.9l10.4,1.1V189H90l20.1-33v33h14.7L145.1,162.9z"/>
		<path d="M26.2,182.4c1.4,0.1,2.1,0.1,3,0.1c10.8,0,16.6-6.7,16.6-19.6c0-10.9-4.7-16.7-13.5-16.7c-1.5,0-3,0.2-6.1,0.6V182.4z
			 M26.2,205.7l8.7,1.9l0,4.9H0.9v-4.9l7.8-1.9v-59.5H0V141l20.8-6.3h5.4v7.1C36,136,39.4,135,44.4,135c11.6,0,20.1,10.7,20.1,25.4
			c0,17.1-11.4,28.6-29.3,28.6c-2,0-5.4-0.1-8.9-0.5V205.7z"/>
	</g>
	<g>
		<rect x="266.8" y="65.2" fill="#E669A1" width="13.2" height="26.1"/>
		<rect x="230.2" y="10.2" fill="#F3BB86" width="10.2" height="15.9"/>
		<rect x="178.2" fill="#ED9C34" width="52" height="10.2"/>
		<rect x="178.2" y="10.2" fill="#E2721B" width="52" height="15.9"/>
		<rect x="240.4" y="26.1" fill="#F3BD25" width="26.4" height="39.1"/>
		<rect x="240.4" y="65.2" fill="#DB4E17" width="26.4" height="26.1"/>
		<rect x="230.2" y="26.1" fill="#E88B13" width="10.2" height="39.1"/>
		<rect x="230.2" y="65.2" fill="#D1390C" width="10.2" height="26.1"/>
		<polygon fill="#D75404" points="210.7,65.2 230.2,65.2 230.2,26.1 178.2,26.1 178.2,52.1 210.7,52.1 		"/>
		<rect x="210.7" y="65.2" fill="#C22302" width="19.5" height="26.1"/>
		<rect x="178.2" y="52.1" fill="#BF4103" width="32.5" height="13.1"/>
		<rect x="178.2" y="65.2" fill="#AD1B01" width="32.5" height="26.1"/>
	</g>
	<rect x="126" y="91.3" fill="#AD1B01" width="52.1" height="13"/>
</g>
</svg>
